<mxfile host="app.diagrams.net" agent="Mozilla/5.0 (Windows NT 10.0; Win64; x64) AppleWebKit/537.36 (KHTML, like Gecko) Chrome/134.0.0.0 Safari/537.36" version="27.0.6" pages="5">
  <diagram name="클래스 다이어그램" id="pPBmhInmBNhDiVrDC7ui">
    <mxGraphModel dx="2365" dy="1493" grid="1" gridSize="10" guides="1" tooltips="1" connect="1" arrows="1" fold="1" page="1" pageScale="1" pageWidth="1169" pageHeight="827" math="0" shadow="0">
      <root>
        <mxCell id="0" />
        <mxCell id="1" parent="0" />
        <mxCell id="C6GbmYov2meGegIGboKW-1" value="&lt;p style=&quot;margin:0px;margin-top:4px;text-align:center;&quot;&gt;&lt;b&gt;서비스 이용자&lt;/b&gt;&lt;/p&gt;&lt;hr size=&quot;1&quot; style=&quot;border-style:solid;&quot;&gt;&lt;p style=&quot;margin:0px;margin-left:4px;&quot;&gt;# UUID (String)&lt;/p&gt;&lt;hr size=&quot;1&quot; style=&quot;border-style:solid;&quot;&gt;&lt;p style=&quot;margin:0px;margin-left:4px;&quot;&gt;+ 앱 최초 실행()&lt;/p&gt;&lt;p style=&quot;margin:0px;margin-left:4px;&quot;&gt;+ 사용자 별 UUID 조회 및 저장()&lt;/p&gt;" style="verticalAlign=top;align=left;overflow=fill;html=1;whiteSpace=wrap;" parent="1" vertex="1">
          <mxGeometry x="494" y="20" width="180" height="100" as="geometry" />
        </mxCell>
        <mxCell id="C6GbmYov2meGegIGboKW-2" value="&lt;p style=&quot;margin:0px;margin-top:4px;text-align:center;&quot;&gt;&lt;b&gt;약 정보 관리 시스템&lt;/b&gt;&lt;/p&gt;&lt;hr size=&quot;1&quot; style=&quot;border-style:solid;&quot;&gt;&lt;p style=&quot;margin:0px;margin-left:4px;&quot;&gt;+ 약명 (String)&lt;/p&gt;&lt;p style=&quot;margin:0px;margin-left:4px;&quot;&gt;+ 복용 시간 (Time)&lt;/p&gt;&lt;p style=&quot;margin:0px;margin-left:4px;&quot;&gt;+ QR 코드 데이터 (String)&lt;/p&gt;&lt;hr size=&quot;1&quot; style=&quot;border-style:solid;&quot;&gt;&lt;p style=&quot;margin:0px;margin-left:4px;&quot;&gt;+ QR 코드 스캔 처리()&lt;/p&gt;&lt;p style=&quot;margin:0px;margin-left:4px;&quot;&gt;+ 약 정보 저장()&lt;/p&gt;&lt;p style=&quot;margin:0px;margin-left:4px;&quot;&gt;+ 알림 시간 설정()&lt;/p&gt;" style="verticalAlign=top;align=left;overflow=fill;html=1;whiteSpace=wrap;" parent="1" vertex="1">
          <mxGeometry x="564" y="440" width="170" height="150" as="geometry" />
        </mxCell>
        <mxCell id="C6GbmYov2meGegIGboKW-3" value="&lt;p style=&quot;margin:0px;margin-top:4px;text-align:center;&quot;&gt;&lt;b&gt;GPS 시스템&lt;/b&gt;&lt;/p&gt;&lt;hr size=&quot;1&quot; style=&quot;border-style:solid;&quot;&gt;&lt;p style=&quot;margin:0px;margin-left:4px;&quot;&gt;+ 위도 (Float)&lt;/p&gt;&lt;p style=&quot;margin:0px;margin-left:4px;&quot;&gt;+ 경도 (Float)&lt;/p&gt;&lt;hr size=&quot;1&quot; style=&quot;border-style:solid;&quot;&gt;&lt;p style=&quot;margin:0px;margin-left:4px;&quot;&gt;+ 사용자 위치 좌표 수집()&lt;/p&gt;&lt;p style=&quot;margin:0px;margin-left:4px;&quot;&gt;+ 위치 기반 데이터 전달()&lt;/p&gt;" style="verticalAlign=top;align=left;overflow=fill;html=1;whiteSpace=wrap;" parent="1" vertex="1">
          <mxGeometry x="940" y="640" width="180" height="120" as="geometry" />
        </mxCell>
        <mxCell id="C6GbmYov2meGegIGboKW-4" value="&lt;p style=&quot;margin:0px;margin-top:4px;text-align:center;&quot;&gt;&lt;b&gt;관리자&lt;/b&gt;&lt;/p&gt;&lt;hr size=&quot;1&quot; style=&quot;border-style:solid;&quot;&gt;&lt;p style=&quot;margin:0px;margin-left:4px;&quot;&gt;+ 사용자 목록 (String)&lt;/p&gt;&lt;p style=&quot;margin:0px;margin-left:4px;&quot;&gt;+ UUID 매핑 (Dict)&lt;/p&gt;&lt;hr size=&quot;1&quot; style=&quot;border-style:solid;&quot;&gt;&lt;p style=&quot;margin:0px;margin-left:4px;&quot;&gt;+ UUID 등록 및 삭제()&lt;/p&gt;" style="verticalAlign=top;align=left;overflow=fill;html=1;whiteSpace=wrap;" parent="1" vertex="1">
          <mxGeometry x="160" y="160" width="160" height="90" as="geometry" />
        </mxCell>
        <mxCell id="C6GbmYov2meGegIGboKW-5" value="&lt;p style=&quot;margin:0px;margin-top:4px;text-align:center;&quot;&gt;&lt;b&gt;QR 시스템&lt;/b&gt;&lt;/p&gt;&lt;hr size=&quot;1&quot; style=&quot;border-style:solid;&quot;&gt;&lt;p style=&quot;margin:0px;margin-left:4px;&quot;&gt;+ QR 코드 이미지(ImageData)&lt;/p&gt;&lt;p style=&quot;margin:0px;margin-left:4px;&quot;&gt;+ 약 정보 (String)&lt;/p&gt;&lt;hr size=&quot;1&quot; style=&quot;border-style:solid;&quot;&gt;&lt;p style=&quot;margin:0px;margin-left:4px;&quot;&gt;+ QR 이미지 스캔()&lt;/p&gt;&lt;p style=&quot;margin:0px;margin-left:4px;&quot;&gt;+ 약 정보 추출 및 반환()&lt;/p&gt;" style="verticalAlign=top;align=left;overflow=fill;html=1;whiteSpace=wrap;" parent="1" vertex="1">
          <mxGeometry x="410" y="640" width="190" height="130" as="geometry" />
        </mxCell>
        <mxCell id="C6GbmYov2meGegIGboKW-6" value="&lt;p style=&quot;margin:0px;margin-top:4px;text-align:center;&quot;&gt;&lt;b&gt;주변 병원 정보 관리 시스템&lt;/b&gt;&lt;/p&gt;&lt;hr size=&quot;1&quot; style=&quot;border-style:solid;&quot;&gt;&lt;p style=&quot;margin:0px;margin-left:4px;&quot;&gt;+ 병원 이름 (String)&lt;/p&gt;&lt;p style=&quot;margin:0px;margin-left:4px;&quot;&gt;+ 위도 (Float)&lt;/p&gt;&lt;p style=&quot;margin:0px;margin-left:4px;&quot;&gt;+ 경도 (Float)&lt;/p&gt;&lt;hr size=&quot;1&quot; style=&quot;border-style:solid;&quot;&gt;&lt;p style=&quot;margin:0px;margin-left:4px;&quot;&gt;+ GPS 기반 주변 병원 안내()&lt;/p&gt;" style="verticalAlign=top;align=left;overflow=fill;html=1;whiteSpace=wrap;" parent="1" vertex="1">
          <mxGeometry x="930" y="440" width="200" height="140" as="geometry" />
        </mxCell>
        <mxCell id="C6GbmYov2meGegIGboKW-7" value="&lt;p style=&quot;margin:0px;margin-top:4px;text-align:center;&quot;&gt;&lt;b&gt;사용자&lt;/b&gt;&lt;/p&gt;&lt;hr size=&quot;1&quot; style=&quot;border-style:solid;&quot;&gt;&lt;p style=&quot;margin:0px;margin-left:4px;&quot;&gt;+ 음성 내용 (String)&lt;/p&gt;&lt;p style=&quot;margin:0px;margin-left:4px;&quot;&gt;+ 재생 시간 (Int)&lt;/p&gt;&lt;p style=&quot;margin:0px;margin-left:4px;&quot;&gt;+ 위치 정보 (String)&lt;/p&gt;&lt;p style=&quot;margin:0px;margin-left:4px;&quot;&gt;+ 스캔 약 정보 (String)&lt;/p&gt;&lt;hr size=&quot;1&quot; style=&quot;border-style:solid;&quot;&gt;&lt;p style=&quot;margin:0px;margin-left:4px;&quot;&gt;+ 앱 실행()&lt;/p&gt;&lt;p style=&quot;margin:0px;margin-left:4px;&quot;&gt;+ 학습 안내 요청()&lt;/p&gt;&lt;p style=&quot;margin:0px;margin-left:4px;&quot;&gt;+ 주변 병원 정보 조회 요청()&lt;/p&gt;&lt;p style=&quot;margin:0px;margin-left:4px;&quot;&gt;+ 약 정보 관리 요청()&lt;/p&gt;&lt;p style=&quot;margin:0px;margin-left:4px;&quot;&gt;+ 음성 안내 요청()&lt;/p&gt;&lt;p style=&quot;margin:0px;margin-left:4px;&quot;&gt;+ 약 복용 알림 수신()&lt;/p&gt;" style="verticalAlign=top;align=left;overflow=fill;html=1;whiteSpace=wrap;" parent="1" vertex="1">
          <mxGeometry x="920" y="160" width="220" height="220" as="geometry" />
        </mxCell>
        <mxCell id="C6GbmYov2meGegIGboKW-8" value="&lt;p style=&quot;margin:0px;margin-top:4px;text-align:center;&quot;&gt;&lt;b&gt;음성 안내 시스템&lt;/b&gt;&lt;/p&gt;&lt;hr size=&quot;1&quot; style=&quot;border-style:solid;&quot;&gt;&lt;p style=&quot;margin:0px;margin-left:4px;&quot;&gt;+ 음성 내용 (String)&lt;/p&gt;&lt;p style=&quot;margin:0px;margin-left:4px;&quot;&gt;+ 재생 시간 (Int)&lt;/p&gt;&lt;hr size=&quot;1&quot; style=&quot;border-style:solid;&quot;&gt;&lt;p style=&quot;margin:0px;margin-left:4px;&quot;&gt;+ TTS 시스템 호출()&lt;/p&gt;&lt;p style=&quot;margin:0px;margin-left:4px;&quot;&gt;+ 안내 메시지 생성()&lt;/p&gt;" style="verticalAlign=top;align=left;overflow=fill;html=1;whiteSpace=wrap;" parent="1" vertex="1">
          <mxGeometry x="1290" y="440" width="150" height="120" as="geometry" />
        </mxCell>
        <mxCell id="C6GbmYov2meGegIGboKW-9" value="&lt;p style=&quot;margin:0px;margin-top:4px;text-align:center;&quot;&gt;&lt;b&gt;알림 시스템&lt;/b&gt;&lt;/p&gt;&lt;hr size=&quot;1&quot; style=&quot;border-style:solid;&quot;&gt;&lt;p style=&quot;margin:0px;margin-left:4px;&quot;&gt;+ 알림 시간 (Time)&lt;/p&gt;&lt;p style=&quot;margin:0px;margin-left:4px;&quot;&gt;+ 알림 메시지 (String)&lt;/p&gt;&lt;p style=&quot;margin:0px;margin-left:4px;&quot;&gt;+ 사용자 UUID (String)&lt;/p&gt;&lt;hr size=&quot;1&quot; style=&quot;border-style:solid;&quot;&gt;&lt;p style=&quot;margin:0px;margin-left:4px;&quot;&gt;+ 약 복용 시간 기반 알림 예약()&lt;/p&gt;&lt;p style=&quot;margin:0px;margin-left:4px;&quot;&gt;+ 사용자에게 알림 전송()&lt;/p&gt;&lt;p style=&quot;margin:0px;margin-left:4px;&quot;&gt;+ 음성 안내 시스템에 알림 메시지 전송()&lt;/p&gt;" style="verticalAlign=top;align=left;overflow=fill;html=1;whiteSpace=wrap;" parent="1" vertex="1">
          <mxGeometry x="660" y="640" width="216" height="156" as="geometry" />
        </mxCell>
        <mxCell id="C6GbmYov2meGegIGboKW-10" value="&lt;p style=&quot;margin:0px;margin-top:4px;text-align:center;&quot;&gt;&lt;b&gt;TTS 시스템&lt;/b&gt;&lt;/p&gt;&lt;hr size=&quot;1&quot; style=&quot;border-style:solid;&quot;&gt;&lt;p style=&quot;margin:0px;margin-left:4px;&quot;&gt;+ 텍스트 입력 (String)&lt;/p&gt;&lt;p style=&quot;margin:0px;margin-left:4px;&quot;&gt;+ 음성 출력 파일 (AudioData)&lt;/p&gt;&lt;hr size=&quot;1&quot; style=&quot;border-style:solid;&quot;&gt;&lt;p style=&quot;margin:0px;margin-left:4px;&quot;&gt;+ 전달 받은 텍스트를 음성으로 변환()&lt;/p&gt;&lt;p style=&quot;margin:0px;margin-left:4px;&quot;&gt;+ 음성 출력 실행()&lt;/p&gt;" style="verticalAlign=top;align=left;overflow=fill;html=1;whiteSpace=wrap;" parent="1" vertex="1">
          <mxGeometry x="1260" y="630" width="210" height="120" as="geometry" />
        </mxCell>
        <mxCell id="C6GbmYov2meGegIGboKW-11" value="" style="endArrow=block;endSize=16;endFill=0;html=1;rounded=0;exitX=1;exitY=0.5;exitDx=0;exitDy=0;entryX=0.25;entryY=1;entryDx=0;entryDy=0;" parent="1" source="C6GbmYov2meGegIGboKW-4" target="C6GbmYov2meGegIGboKW-1" edge="1">
          <mxGeometry y="-11" width="160" relative="1" as="geometry">
            <mxPoint x="380" y="249.99999999999994" as="sourcePoint" />
            <mxPoint x="540" y="249.99999999999994" as="targetPoint" />
            <Array as="points">
              <mxPoint x="540" y="205" />
            </Array>
            <mxPoint as="offset" />
          </mxGeometry>
        </mxCell>
        <mxCell id="C6GbmYov2meGegIGboKW-12" value="" style="endArrow=block;endSize=16;endFill=0;html=1;rounded=0;exitX=0;exitY=0.5;exitDx=0;exitDy=0;entryX=0.75;entryY=1;entryDx=0;entryDy=0;" parent="1" source="C6GbmYov2meGegIGboKW-7" target="C6GbmYov2meGegIGboKW-1" edge="1">
          <mxGeometry y="-11" width="160" relative="1" as="geometry">
            <mxPoint x="560" y="265" as="sourcePoint" />
            <mxPoint x="824" y="180" as="targetPoint" />
            <Array as="points">
              <mxPoint x="630" y="270" />
            </Array>
            <mxPoint as="offset" />
          </mxGeometry>
        </mxCell>
        <mxCell id="C6GbmYov2meGegIGboKW-13" value="" style="endArrow=none;html=1;rounded=0;entryX=0.5;entryY=1;entryDx=0;entryDy=0;exitX=0.5;exitY=0;exitDx=0;exitDy=0;" parent="1" source="C6GbmYov2meGegIGboKW-6" target="C6GbmYov2meGegIGboKW-7" edge="1">
          <mxGeometry width="50" height="50" relative="1" as="geometry">
            <mxPoint x="1110" y="570" as="sourcePoint" />
            <mxPoint x="1160" y="520" as="targetPoint" />
          </mxGeometry>
        </mxCell>
        <mxCell id="C6GbmYov2meGegIGboKW-14" value="" style="endArrow=none;html=1;rounded=0;entryX=0.25;entryY=1;entryDx=0;entryDy=0;exitX=0.5;exitY=0;exitDx=0;exitDy=0;" parent="1" source="C6GbmYov2meGegIGboKW-2" target="C6GbmYov2meGegIGboKW-7" edge="1">
          <mxGeometry width="50" height="50" relative="1" as="geometry">
            <mxPoint x="1110" y="570" as="sourcePoint" />
            <mxPoint x="1160" y="520" as="targetPoint" />
            <Array as="points">
              <mxPoint x="649" y="410" />
              <mxPoint x="975" y="410" />
            </Array>
          </mxGeometry>
        </mxCell>
        <mxCell id="C6GbmYov2meGegIGboKW-15" value="" style="endArrow=none;html=1;rounded=0;entryX=0.5;entryY=0;entryDx=0;entryDy=0;exitX=0.75;exitY=1;exitDx=0;exitDy=0;" parent="1" source="C6GbmYov2meGegIGboKW-7" target="C6GbmYov2meGegIGboKW-8" edge="1">
          <mxGeometry width="50" height="50" relative="1" as="geometry">
            <mxPoint x="1190" y="410" as="sourcePoint" />
            <mxPoint x="1516" y="350" as="targetPoint" />
            <Array as="points">
              <mxPoint x="1085" y="410" />
              <mxPoint x="1365" y="410" />
            </Array>
          </mxGeometry>
        </mxCell>
        <mxCell id="C6GbmYov2meGegIGboKW-16" value="" style="endArrow=none;html=1;rounded=0;entryX=0.25;entryY=1;entryDx=0;entryDy=0;exitX=0.5;exitY=0;exitDx=0;exitDy=0;" parent="1" source="C6GbmYov2meGegIGboKW-5" target="C6GbmYov2meGegIGboKW-2" edge="1">
          <mxGeometry width="50" height="50" relative="1" as="geometry">
            <mxPoint x="1110" y="570" as="sourcePoint" />
            <mxPoint x="1160" y="520" as="targetPoint" />
            <Array as="points">
              <mxPoint x="505" y="610" />
              <mxPoint x="607" y="610" />
            </Array>
          </mxGeometry>
        </mxCell>
        <mxCell id="C6GbmYov2meGegIGboKW-17" value="" style="endArrow=none;html=1;rounded=0;entryX=0.75;entryY=1;entryDx=0;entryDy=0;exitX=0.5;exitY=0;exitDx=0;exitDy=0;" parent="1" source="C6GbmYov2meGegIGboKW-9" target="C6GbmYov2meGegIGboKW-2" edge="1">
          <mxGeometry width="50" height="50" relative="1" as="geometry">
            <mxPoint x="1110" y="570" as="sourcePoint" />
            <mxPoint x="1160" y="520" as="targetPoint" />
            <Array as="points">
              <mxPoint x="768" y="610" />
              <mxPoint x="692" y="610" />
            </Array>
          </mxGeometry>
        </mxCell>
        <mxCell id="C6GbmYov2meGegIGboKW-18" value="" style="endArrow=none;html=1;rounded=0;entryX=0.5;entryY=1;entryDx=0;entryDy=0;exitX=0.5;exitY=0;exitDx=0;exitDy=0;" parent="1" source="C6GbmYov2meGegIGboKW-3" target="C6GbmYov2meGegIGboKW-6" edge="1">
          <mxGeometry width="50" height="50" relative="1" as="geometry">
            <mxPoint x="1110" y="570" as="sourcePoint" />
            <mxPoint x="1160" y="520" as="targetPoint" />
          </mxGeometry>
        </mxCell>
        <mxCell id="C6GbmYov2meGegIGboKW-19" value="" style="endArrow=none;html=1;rounded=0;entryX=0.5;entryY=1;entryDx=0;entryDy=0;exitX=0.5;exitY=0;exitDx=0;exitDy=0;" parent="1" source="C6GbmYov2meGegIGboKW-10" target="C6GbmYov2meGegIGboKW-8" edge="1">
          <mxGeometry width="50" height="50" relative="1" as="geometry">
            <mxPoint x="1110" y="570" as="sourcePoint" />
            <mxPoint x="1160" y="520" as="targetPoint" />
          </mxGeometry>
        </mxCell>
        <mxCell id="C6GbmYov2meGegIGboKW-20" value="1" style="text;align=center;fontStyle=1;verticalAlign=middle;spacingLeft=3;spacingRight=3;strokeColor=none;rotatable=0;points=[[0,0.5],[1,0.5]];portConstraint=eastwest;html=1;" parent="1" vertex="1">
          <mxGeometry x="1351" y="616" width="10" height="10" as="geometry" />
        </mxCell>
        <mxCell id="C6GbmYov2meGegIGboKW-21" value="1" style="text;align=center;fontStyle=1;verticalAlign=middle;spacingLeft=3;spacingRight=3;strokeColor=none;rotatable=0;points=[[0,0.5],[1,0.5]];portConstraint=eastwest;html=1;" parent="1" vertex="1">
          <mxGeometry x="961" y="382" width="10" height="10" as="geometry" />
        </mxCell>
        <mxCell id="C6GbmYov2meGegIGboKW-22" value="1" style="text;align=center;fontStyle=1;verticalAlign=middle;spacingLeft=3;spacingRight=3;strokeColor=none;rotatable=0;points=[[0,0.5],[1,0.5]];portConstraint=eastwest;html=1;" parent="1" vertex="1">
          <mxGeometry x="1016" y="382" width="11" height="10" as="geometry" />
        </mxCell>
        <mxCell id="C6GbmYov2meGegIGboKW-23" value="1" style="text;align=center;fontStyle=1;verticalAlign=middle;spacingLeft=3;spacingRight=3;strokeColor=none;rotatable=0;points=[[0,0.5],[1,0.5]];portConstraint=eastwest;html=1;" parent="1" vertex="1">
          <mxGeometry x="1070" y="382" width="11" height="10" as="geometry" />
        </mxCell>
        <mxCell id="Qm93iwMksOHrOMu_KxM6-1" style="edgeStyle=orthogonalEdgeStyle;rounded=0;orthogonalLoop=1;jettySize=auto;html=1;exitX=0;exitY=0.5;exitDx=0;exitDy=0;" edge="1" parent="1" source="C6GbmYov2meGegIGboKW-24" target="C6GbmYov2meGegIGboKW-7">
          <mxGeometry relative="1" as="geometry" />
        </mxCell>
        <mxCell id="C6GbmYov2meGegIGboKW-24" value="1" style="text;align=center;fontStyle=1;verticalAlign=middle;spacingLeft=3;spacingRight=3;strokeColor=none;rotatable=0;points=[[0,0.5],[1,0.5]];portConstraint=eastwest;html=1;" parent="1" vertex="1">
          <mxGeometry x="1016" y="428" width="11" height="10" as="geometry" />
        </mxCell>
        <mxCell id="C6GbmYov2meGegIGboKW-25" value="1" style="text;align=center;fontStyle=1;verticalAlign=middle;spacingLeft=3;spacingRight=3;strokeColor=none;rotatable=0;points=[[0,0.5],[1,0.5]];portConstraint=eastwest;html=1;" parent="1" vertex="1">
          <mxGeometry x="1350" y="428" width="11" height="10" as="geometry" />
        </mxCell>
        <mxCell id="C6GbmYov2meGegIGboKW-26" value="1" style="text;align=center;fontStyle=1;verticalAlign=middle;spacingLeft=3;spacingRight=3;strokeColor=none;rotatable=0;points=[[0,0.5],[1,0.5]];portConstraint=eastwest;html=1;" parent="1" vertex="1">
          <mxGeometry x="636" y="428" width="11" height="10" as="geometry" />
        </mxCell>
        <mxCell id="C6GbmYov2meGegIGboKW-27" value="1" style="text;align=center;fontStyle=1;verticalAlign=middle;spacingLeft=3;spacingRight=3;strokeColor=none;rotatable=0;points=[[0,0.5],[1,0.5]];portConstraint=eastwest;html=1;" parent="1" vertex="1">
          <mxGeometry x="507" y="626" width="11" height="10" as="geometry" />
        </mxCell>
        <mxCell id="C6GbmYov2meGegIGboKW-28" value="1" style="text;align=center;fontStyle=1;verticalAlign=middle;spacingLeft=3;spacingRight=3;strokeColor=none;rotatable=0;points=[[0,0.5],[1,0.5]];portConstraint=eastwest;html=1;" parent="1" vertex="1">
          <mxGeometry x="772" y="626" width="11" height="10" as="geometry" />
        </mxCell>
        <mxCell id="C6GbmYov2meGegIGboKW-29" value="1" style="text;align=center;fontStyle=1;verticalAlign=middle;spacingLeft=3;spacingRight=3;strokeColor=none;rotatable=0;points=[[0,0.5],[1,0.5]];portConstraint=eastwest;html=1;" parent="1" vertex="1">
          <mxGeometry x="1034" y="626" width="11" height="10" as="geometry" />
        </mxCell>
        <mxCell id="C6GbmYov2meGegIGboKW-30" value="1" style="text;align=center;fontStyle=1;verticalAlign=middle;spacingLeft=3;spacingRight=3;strokeColor=none;rotatable=0;points=[[0,0.5],[1,0.5]];portConstraint=eastwest;html=1;" parent="1" vertex="1">
          <mxGeometry x="1034" y="582" width="11" height="10" as="geometry" />
        </mxCell>
        <mxCell id="C6GbmYov2meGegIGboKW-31" value="1" style="text;align=center;fontStyle=1;verticalAlign=middle;spacingLeft=3;spacingRight=3;strokeColor=none;rotatable=0;points=[[0,0.5],[1,0.5]];portConstraint=eastwest;html=1;" parent="1" vertex="1">
          <mxGeometry x="677" y="592" width="11" height="10" as="geometry" />
        </mxCell>
        <mxCell id="C6GbmYov2meGegIGboKW-32" value="1" style="text;align=center;fontStyle=1;verticalAlign=middle;spacingLeft=3;spacingRight=3;strokeColor=none;rotatable=0;points=[[0,0.5],[1,0.5]];portConstraint=eastwest;html=1;" parent="1" vertex="1">
          <mxGeometry x="592" y="592" width="11" height="10" as="geometry" />
        </mxCell>
        <mxCell id="C6GbmYov2meGegIGboKW-33" value="1" style="text;align=center;fontStyle=1;verticalAlign=middle;spacingLeft=3;spacingRight=3;strokeColor=none;rotatable=0;points=[[0,0.5],[1,0.5]];portConstraint=eastwest;html=1;" parent="1" vertex="1">
          <mxGeometry x="1351" y="562" width="10" height="10" as="geometry" />
        </mxCell>
      </root>
    </mxGraphModel>
  </diagram>
  <diagram id="xx8g7H8Xf8d9MJ3QNM9l" name="sd 앱 실행">
    <mxGraphModel dx="1082" dy="1222" grid="1" gridSize="10" guides="1" tooltips="1" connect="1" arrows="1" fold="1" page="1" pageScale="1" pageWidth="1654" pageHeight="1169" math="0" shadow="0">
      <root>
        <mxCell id="0" />
        <mxCell id="1" parent="0" />
        <mxCell id="B664CNn3AxfdgNS15yO0-23" value="" style="shape=umlLifeline;perimeter=lifelinePerimeter;whiteSpace=wrap;html=1;container=1;dropTarget=0;collapsible=0;recursiveResize=0;outlineConnect=0;portConstraint=eastwest;newEdgeStyle={&quot;curved&quot;:0,&quot;rounded&quot;:0};participant=umlActor;size=40;" parent="1" vertex="1">
          <mxGeometry x="279" y="80" width="20" height="410" as="geometry" />
        </mxCell>
        <mxCell id="88Ob4_kD5uC0H-VeBAwT-1" value="" style="html=1;points=[[0,0,0,0,5],[0,1,0,0,-5],[1,0,0,0,5],[1,1,0,0,-5]];perimeter=orthogonalPerimeter;outlineConnect=0;targetShapes=umlLifeline;portConstraint=eastwest;newEdgeStyle={&quot;curved&quot;:0,&quot;rounded&quot;:0};" parent="B664CNn3AxfdgNS15yO0-23" vertex="1">
          <mxGeometry x="5" y="90" width="10" height="310" as="geometry" />
        </mxCell>
        <mxCell id="B664CNn3AxfdgNS15yO0-24" value="&lt;span style=&quot;font-weight: normal;&quot;&gt;관리자&lt;/span&gt;" style="text;align=center;fontStyle=1;verticalAlign=middle;spacingLeft=3;spacingRight=3;strokeColor=none;rotatable=0;points=[[0,0.5],[1,0.5]];portConstraint=eastwest;html=1;fontSize=12;" parent="1" vertex="1">
          <mxGeometry x="279" y="120" width="70" height="30" as="geometry" />
        </mxCell>
        <mxCell id="B664CNn3AxfdgNS15yO0-25" value="sd 앱 실행" style="shape=umlFrame;whiteSpace=wrap;html=1;pointerEvents=0;width=80;height=40;" parent="1" vertex="1">
          <mxGeometry x="120" y="50" width="690" height="455" as="geometry" />
        </mxCell>
        <mxCell id="B664CNn3AxfdgNS15yO0-26" value=":앱" style="shape=umlLifeline;perimeter=lifelinePerimeter;whiteSpace=wrap;html=1;container=1;dropTarget=0;collapsible=0;recursiveResize=0;outlineConnect=0;portConstraint=eastwest;newEdgeStyle={&quot;curved&quot;:0,&quot;rounded&quot;:0};" parent="1" vertex="1">
          <mxGeometry x="390" y="80" width="100" height="410" as="geometry" />
        </mxCell>
        <mxCell id="B664CNn3AxfdgNS15yO0-27" value="" style="html=1;points=[[0,0,0,0,5],[0,1,0,0,-5],[1,0,0,0,5],[1,1,0,0,-5]];perimeter=orthogonalPerimeter;outlineConnect=0;targetShapes=umlLifeline;portConstraint=eastwest;newEdgeStyle={&quot;curved&quot;:0,&quot;rounded&quot;:0};" parent="B664CNn3AxfdgNS15yO0-26" vertex="1">
          <mxGeometry x="45" y="90" width="10" height="310" as="geometry" />
        </mxCell>
        <mxCell id="B664CNn3AxfdgNS15yO0-28" value="앱 실행()" style="html=1;verticalAlign=bottom;endArrow=block;curved=0;rounded=0;entryX=0;entryY=0;entryDx=0;entryDy=5;" parent="1" source="88Ob4_kD5uC0H-VeBAwT-1" edge="1">
          <mxGeometry relative="1" as="geometry">
            <mxPoint x="249.5" y="189.66000000000008" as="sourcePoint" />
            <mxPoint x="435" y="189.66000000000008" as="targetPoint" />
          </mxGeometry>
        </mxCell>
        <mxCell id="B664CNn3AxfdgNS15yO0-29" value="기존 정보로 앱 시작" style="html=1;verticalAlign=bottom;endArrow=open;dashed=1;endSize=8;curved=0;rounded=0;exitX=0;exitY=1;exitDx=0;exitDy=-5;" parent="1" target="88Ob4_kD5uC0H-VeBAwT-1" edge="1">
          <mxGeometry relative="1" as="geometry">
            <mxPoint x="249.81034482758605" y="349.9999999999998" as="targetPoint" />
            <mxPoint x="435" y="349.9999999999998" as="sourcePoint" />
          </mxGeometry>
        </mxCell>
        <mxCell id="B664CNn3AxfdgNS15yO0-30" value="alt" style="shape=umlFrame;whiteSpace=wrap;html=1;pointerEvents=0;" parent="1" vertex="1">
          <mxGeometry x="170" y="320" width="620" height="160" as="geometry" />
        </mxCell>
        <mxCell id="B664CNn3AxfdgNS15yO0-31" value=":관리자 기기" style="shape=umlLifeline;perimeter=lifelinePerimeter;whiteSpace=wrap;html=1;container=1;dropTarget=0;collapsible=0;recursiveResize=0;outlineConnect=0;portConstraint=eastwest;newEdgeStyle={&quot;curved&quot;:0,&quot;rounded&quot;:0};" parent="1" vertex="1">
          <mxGeometry x="550" y="80" width="100" height="410" as="geometry" />
        </mxCell>
        <mxCell id="B664CNn3AxfdgNS15yO0-32" value="" style="html=1;points=[[0,0,0,0,5],[0,1,0,0,-5],[1,0,0,0,5],[1,1,0,0,-5]];perimeter=orthogonalPerimeter;outlineConnect=0;targetShapes=umlLifeline;portConstraint=eastwest;newEdgeStyle={&quot;curved&quot;:0,&quot;rounded&quot;:0};" parent="B664CNn3AxfdgNS15yO0-31" vertex="1">
          <mxGeometry x="45" y="90" width="10" height="310" as="geometry" />
        </mxCell>
        <mxCell id="B664CNn3AxfdgNS15yO0-33" value="UUID 전달" style="html=1;verticalAlign=bottom;endArrow=open;dashed=1;endSize=8;curved=0;rounded=0;exitX=0;exitY=1;exitDx=0;exitDy=-5;" parent="1" edge="1">
          <mxGeometry relative="1" as="geometry">
            <mxPoint x="445" y="240" as="targetPoint" />
            <mxPoint x="595" y="240" as="sourcePoint" />
          </mxGeometry>
        </mxCell>
        <mxCell id="B664CNn3AxfdgNS15yO0-34" value="UUID 요청()" style="html=1;verticalAlign=bottom;endArrow=block;curved=0;rounded=0;entryX=0;entryY=0;entryDx=0;entryDy=5;" parent="1" edge="1">
          <mxGeometry relative="1" as="geometry">
            <mxPoint x="445" y="211.9999999999999" as="sourcePoint" />
            <mxPoint x="595.0000000000002" y="211.9999999999999" as="targetPoint" />
          </mxGeometry>
        </mxCell>
        <mxCell id="B664CNn3AxfdgNS15yO0-35" value="UUID 존재 여부 확인()" style="html=1;verticalAlign=bottom;endArrow=block;curved=0;rounded=0;align=right;" parent="1" source="B664CNn3AxfdgNS15yO0-27" edge="1">
          <mxGeometry relative="1" as="geometry">
            <mxPoint x="439.8103448275863" y="300.0000000000001" as="sourcePoint" />
            <mxPoint x="715.0000000000002" y="300.0000000000001" as="targetPoint" />
          </mxGeometry>
        </mxCell>
        <mxCell id="B664CNn3AxfdgNS15yO0-36" value="UUID 있음&amp;nbsp; &amp;nbsp; &amp;nbsp; &amp;nbsp; &amp;nbsp;&amp;nbsp;" style="html=1;verticalAlign=bottom;endArrow=open;dashed=1;endSize=8;curved=0;rounded=0;exitX=0;exitY=1;exitDx=0;exitDy=-5;align=right;" parent="1" edge="1">
          <mxGeometry relative="1" as="geometry">
            <mxPoint x="445" y="339.9999999999998" as="targetPoint" />
            <mxPoint x="715.0000000000002" y="339.9999999999998" as="sourcePoint" />
          </mxGeometry>
        </mxCell>
        <mxCell id="B664CNn3AxfdgNS15yO0-37" value=":내부 DB" style="shape=umlLifeline;perimeter=lifelinePerimeter;whiteSpace=wrap;html=1;container=1;dropTarget=0;collapsible=0;recursiveResize=0;outlineConnect=0;portConstraint=eastwest;newEdgeStyle={&quot;curved&quot;:0,&quot;rounded&quot;:0};" parent="1" vertex="1">
          <mxGeometry x="670" y="80" width="100" height="410" as="geometry" />
        </mxCell>
        <mxCell id="B664CNn3AxfdgNS15yO0-38" value="" style="html=1;points=[[0,0,0,0,5],[0,1,0,0,-5],[1,0,0,0,5],[1,1,0,0,-5]];perimeter=orthogonalPerimeter;outlineConnect=0;targetShapes=umlLifeline;portConstraint=eastwest;newEdgeStyle={&quot;curved&quot;:0,&quot;rounded&quot;:0};" parent="B664CNn3AxfdgNS15yO0-37" vertex="1">
          <mxGeometry x="45" y="90" width="10" height="310" as="geometry" />
        </mxCell>
        <mxCell id="B664CNn3AxfdgNS15yO0-39" value="UUID 없음&amp;nbsp; &amp;nbsp; &amp;nbsp; &amp;nbsp; &amp;nbsp;" style="html=1;verticalAlign=bottom;endArrow=open;dashed=1;endSize=8;curved=0;rounded=0;exitX=0;exitY=1;exitDx=0;exitDy=-5;align=right;" parent="1" edge="1">
          <mxGeometry relative="1" as="geometry">
            <mxPoint x="445" y="416.9999999999998" as="targetPoint" />
            <mxPoint x="715.0000000000002" y="416.9999999999998" as="sourcePoint" />
          </mxGeometry>
        </mxCell>
        <mxCell id="B664CNn3AxfdgNS15yO0-40" value="UUID 등록 요청()&amp;nbsp; &amp;nbsp;&amp;nbsp;" style="html=1;verticalAlign=bottom;endArrow=block;curved=0;rounded=0;align=right;" parent="1" edge="1">
          <mxGeometry relative="1" as="geometry">
            <mxPoint x="445" y="439" as="sourcePoint" />
            <mxPoint x="715.0000000000002" y="439" as="targetPoint" />
          </mxGeometry>
        </mxCell>
        <mxCell id="B664CNn3AxfdgNS15yO0-41" value="" style="endArrow=none;dashed=1;html=1;rounded=0;exitX=0.001;exitY=0.5;exitDx=0;exitDy=0;exitPerimeter=0;entryX=0.995;entryY=0.504;entryDx=0;entryDy=0;entryPerimeter=0;" parent="1" edge="1">
          <mxGeometry width="50" height="50" relative="1" as="geometry">
            <mxPoint x="170.62" y="395" as="sourcePoint" />
            <mxPoint x="786.9000000000001" y="395.64" as="targetPoint" />
          </mxGeometry>
        </mxCell>
        <mxCell id="B664CNn3AxfdgNS15yO0-42" value="&lt;font&gt;[등록된 UUID일 경우]&lt;/font&gt;" style="text;html=1;align=center;verticalAlign=middle;whiteSpace=wrap;rounded=0;fontSize=9;" parent="1" vertex="1">
          <mxGeometry x="170" y="350" width="120" height="30" as="geometry" />
        </mxCell>
        <mxCell id="B664CNn3AxfdgNS15yO0-43" value="&lt;font&gt;[등록되지 않은 UUID일 경우]&lt;/font&gt;" style="text;html=1;align=center;verticalAlign=middle;whiteSpace=wrap;rounded=0;fontSize=9;" parent="1" vertex="1">
          <mxGeometry x="163" y="400" width="130" height="30" as="geometry" />
        </mxCell>
        <mxCell id="B664CNn3AxfdgNS15yO0-44" value="UUID 등록 완료 알림" style="html=1;verticalAlign=bottom;endArrow=open;dashed=1;endSize=8;curved=0;rounded=0;" parent="1" edge="1">
          <mxGeometry relative="1" as="geometry">
            <mxPoint x="445" y="461" as="targetPoint" />
            <mxPoint x="715" y="461" as="sourcePoint" />
          </mxGeometry>
        </mxCell>
        <mxCell id="88Ob4_kD5uC0H-VeBAwT-26" value="" style="shape=umlLifeline;perimeter=lifelinePerimeter;whiteSpace=wrap;html=1;container=1;dropTarget=0;collapsible=0;recursiveResize=0;outlineConnect=0;portConstraint=eastwest;newEdgeStyle={&quot;curved&quot;:0,&quot;rounded&quot;:0};participant=umlActor;size=40;" parent="1" vertex="1">
          <mxGeometry x="1039" y="80" width="20" height="410" as="geometry" />
        </mxCell>
        <mxCell id="88Ob4_kD5uC0H-VeBAwT-27" value="" style="html=1;points=[[0,0,0,0,5],[0,1,0,0,-5],[1,0,0,0,5],[1,1,0,0,-5]];perimeter=orthogonalPerimeter;outlineConnect=0;targetShapes=umlLifeline;portConstraint=eastwest;newEdgeStyle={&quot;curved&quot;:0,&quot;rounded&quot;:0};" parent="88Ob4_kD5uC0H-VeBAwT-26" vertex="1">
          <mxGeometry x="5" y="90" width="10" height="310" as="geometry" />
        </mxCell>
        <mxCell id="88Ob4_kD5uC0H-VeBAwT-28" value="&lt;span style=&quot;font-weight: normal;&quot;&gt;관리자&lt;/span&gt;" style="text;align=center;fontStyle=1;verticalAlign=middle;spacingLeft=3;spacingRight=3;strokeColor=none;rotatable=0;points=[[0,0.5],[1,0.5]];portConstraint=eastwest;html=1;fontSize=12;" parent="1" vertex="1">
          <mxGeometry x="1039" y="120" width="70" height="30" as="geometry" />
        </mxCell>
        <mxCell id="88Ob4_kD5uC0H-VeBAwT-29" value="sd 앱 실행" style="shape=umlFrame;whiteSpace=wrap;html=1;pointerEvents=0;width=80;height=40;" parent="1" vertex="1">
          <mxGeometry x="880" y="50" width="690" height="455" as="geometry" />
        </mxCell>
        <mxCell id="88Ob4_kD5uC0H-VeBAwT-30" value=":앱" style="shape=umlLifeline;perimeter=lifelinePerimeter;whiteSpace=wrap;html=1;container=1;dropTarget=0;collapsible=0;recursiveResize=0;outlineConnect=0;portConstraint=eastwest;newEdgeStyle={&quot;curved&quot;:0,&quot;rounded&quot;:0};" parent="1" vertex="1">
          <mxGeometry x="1150" y="80" width="100" height="410" as="geometry" />
        </mxCell>
        <mxCell id="88Ob4_kD5uC0H-VeBAwT-31" value="" style="html=1;points=[[0,0,0,0,5],[0,1,0,0,-5],[1,0,0,0,5],[1,1,0,0,-5]];perimeter=orthogonalPerimeter;outlineConnect=0;targetShapes=umlLifeline;portConstraint=eastwest;newEdgeStyle={&quot;curved&quot;:0,&quot;rounded&quot;:0};" parent="88Ob4_kD5uC0H-VeBAwT-30" vertex="1">
          <mxGeometry x="45" y="90" width="10" height="310" as="geometry" />
        </mxCell>
        <mxCell id="88Ob4_kD5uC0H-VeBAwT-32" value="앱 실행()" style="html=1;verticalAlign=bottom;endArrow=block;curved=0;rounded=0;entryX=0;entryY=0;entryDx=0;entryDy=5;" parent="1" source="88Ob4_kD5uC0H-VeBAwT-27" edge="1">
          <mxGeometry relative="1" as="geometry">
            <mxPoint x="1009.5" y="189.66000000000008" as="sourcePoint" />
            <mxPoint x="1195" y="189.66000000000008" as="targetPoint" />
          </mxGeometry>
        </mxCell>
        <mxCell id="88Ob4_kD5uC0H-VeBAwT-33" value="기존 정보로 앱 시작" style="html=1;verticalAlign=bottom;endArrow=open;dashed=1;endSize=8;curved=0;rounded=0;exitX=0;exitY=1;exitDx=0;exitDy=-5;" parent="1" target="88Ob4_kD5uC0H-VeBAwT-27" edge="1">
          <mxGeometry relative="1" as="geometry">
            <mxPoint x="1009.810344827586" y="349.9999999999998" as="targetPoint" />
            <mxPoint x="1195" y="349.9999999999998" as="sourcePoint" />
          </mxGeometry>
        </mxCell>
        <mxCell id="88Ob4_kD5uC0H-VeBAwT-34" value="alt" style="shape=umlFrame;whiteSpace=wrap;html=1;pointerEvents=0;" parent="1" vertex="1">
          <mxGeometry x="930" y="320" width="620" height="160" as="geometry" />
        </mxCell>
        <mxCell id="88Ob4_kD5uC0H-VeBAwT-35" value=":관리자 기기" style="shape=umlLifeline;perimeter=lifelinePerimeter;whiteSpace=wrap;html=1;container=1;dropTarget=0;collapsible=0;recursiveResize=0;outlineConnect=0;portConstraint=eastwest;newEdgeStyle={&quot;curved&quot;:0,&quot;rounded&quot;:0};" parent="1" vertex="1">
          <mxGeometry x="1310" y="80" width="100" height="410" as="geometry" />
        </mxCell>
        <mxCell id="88Ob4_kD5uC0H-VeBAwT-36" value="" style="html=1;points=[[0,0,0,0,5],[0,1,0,0,-5],[1,0,0,0,5],[1,1,0,0,-5]];perimeter=orthogonalPerimeter;outlineConnect=0;targetShapes=umlLifeline;portConstraint=eastwest;newEdgeStyle={&quot;curved&quot;:0,&quot;rounded&quot;:0};" parent="88Ob4_kD5uC0H-VeBAwT-35" vertex="1">
          <mxGeometry x="45" y="90" width="10" height="310" as="geometry" />
        </mxCell>
        <mxCell id="88Ob4_kD5uC0H-VeBAwT-37" value="UUID 전달" style="html=1;verticalAlign=bottom;endArrow=open;dashed=1;endSize=8;curved=0;rounded=0;exitX=0;exitY=1;exitDx=0;exitDy=-5;" parent="1" edge="1">
          <mxGeometry relative="1" as="geometry">
            <mxPoint x="1205" y="240" as="targetPoint" />
            <mxPoint x="1355" y="240" as="sourcePoint" />
          </mxGeometry>
        </mxCell>
        <mxCell id="88Ob4_kD5uC0H-VeBAwT-38" value="UUID 요청()" style="html=1;verticalAlign=bottom;endArrow=block;curved=0;rounded=0;entryX=0;entryY=0;entryDx=0;entryDy=5;" parent="1" edge="1">
          <mxGeometry relative="1" as="geometry">
            <mxPoint x="1205" y="211.9999999999999" as="sourcePoint" />
            <mxPoint x="1355.0000000000002" y="211.9999999999999" as="targetPoint" />
          </mxGeometry>
        </mxCell>
        <mxCell id="88Ob4_kD5uC0H-VeBAwT-39" value="UUID 존재 여부 확인()" style="html=1;verticalAlign=bottom;endArrow=block;curved=0;rounded=0;align=right;" parent="1" source="88Ob4_kD5uC0H-VeBAwT-31" edge="1">
          <mxGeometry relative="1" as="geometry">
            <mxPoint x="1199.8103448275863" y="300.0000000000001" as="sourcePoint" />
            <mxPoint x="1475.0000000000002" y="300.0000000000001" as="targetPoint" />
          </mxGeometry>
        </mxCell>
        <mxCell id="88Ob4_kD5uC0H-VeBAwT-40" value="UUID 있음&amp;nbsp; &amp;nbsp; &amp;nbsp; &amp;nbsp; &amp;nbsp;&amp;nbsp;" style="html=1;verticalAlign=bottom;endArrow=open;dashed=1;endSize=8;curved=0;rounded=0;exitX=0;exitY=1;exitDx=0;exitDy=-5;align=right;" parent="1" edge="1">
          <mxGeometry relative="1" as="geometry">
            <mxPoint x="1205" y="339.9999999999998" as="targetPoint" />
            <mxPoint x="1475.0000000000002" y="339.9999999999998" as="sourcePoint" />
          </mxGeometry>
        </mxCell>
        <mxCell id="88Ob4_kD5uC0H-VeBAwT-41" value=":내부 DB" style="shape=umlLifeline;perimeter=lifelinePerimeter;whiteSpace=wrap;html=1;container=1;dropTarget=0;collapsible=0;recursiveResize=0;outlineConnect=0;portConstraint=eastwest;newEdgeStyle={&quot;curved&quot;:0,&quot;rounded&quot;:0};" parent="1" vertex="1">
          <mxGeometry x="1430" y="80" width="100" height="410" as="geometry" />
        </mxCell>
        <mxCell id="88Ob4_kD5uC0H-VeBAwT-42" value="" style="html=1;points=[[0,0,0,0,5],[0,1,0,0,-5],[1,0,0,0,5],[1,1,0,0,-5]];perimeter=orthogonalPerimeter;outlineConnect=0;targetShapes=umlLifeline;portConstraint=eastwest;newEdgeStyle={&quot;curved&quot;:0,&quot;rounded&quot;:0};" parent="88Ob4_kD5uC0H-VeBAwT-41" vertex="1">
          <mxGeometry x="45" y="90" width="10" height="310" as="geometry" />
        </mxCell>
        <mxCell id="88Ob4_kD5uC0H-VeBAwT-43" value="UUID 없음&amp;nbsp; &amp;nbsp; &amp;nbsp; &amp;nbsp; &amp;nbsp;" style="html=1;verticalAlign=bottom;endArrow=open;dashed=1;endSize=8;curved=0;rounded=0;exitX=0;exitY=1;exitDx=0;exitDy=-5;align=right;" parent="1" edge="1">
          <mxGeometry relative="1" as="geometry">
            <mxPoint x="1205" y="416.9999999999998" as="targetPoint" />
            <mxPoint x="1475.0000000000002" y="416.9999999999998" as="sourcePoint" />
          </mxGeometry>
        </mxCell>
        <mxCell id="88Ob4_kD5uC0H-VeBAwT-44" value="UUID 등록 요청()&amp;nbsp; &amp;nbsp;&amp;nbsp;" style="html=1;verticalAlign=bottom;endArrow=block;curved=0;rounded=0;align=right;" parent="1" edge="1">
          <mxGeometry relative="1" as="geometry">
            <mxPoint x="1205" y="439" as="sourcePoint" />
            <mxPoint x="1475.0000000000002" y="439" as="targetPoint" />
          </mxGeometry>
        </mxCell>
        <mxCell id="88Ob4_kD5uC0H-VeBAwT-45" value="" style="endArrow=none;dashed=1;html=1;rounded=0;exitX=0.001;exitY=0.5;exitDx=0;exitDy=0;exitPerimeter=0;entryX=0.995;entryY=0.504;entryDx=0;entryDy=0;entryPerimeter=0;" parent="1" edge="1">
          <mxGeometry width="50" height="50" relative="1" as="geometry">
            <mxPoint x="930.62" y="395" as="sourcePoint" />
            <mxPoint x="1546.9" y="395.64" as="targetPoint" />
          </mxGeometry>
        </mxCell>
        <mxCell id="88Ob4_kD5uC0H-VeBAwT-46" value="&lt;font&gt;[등록된 UUID일 경우]&lt;/font&gt;" style="text;html=1;align=center;verticalAlign=middle;whiteSpace=wrap;rounded=0;fontSize=9;" parent="1" vertex="1">
          <mxGeometry x="930" y="350" width="120" height="30" as="geometry" />
        </mxCell>
        <mxCell id="88Ob4_kD5uC0H-VeBAwT-47" value="&lt;font&gt;[등록되지 않은 UUID일 경우]&lt;/font&gt;" style="text;html=1;align=center;verticalAlign=middle;whiteSpace=wrap;rounded=0;fontSize=9;" parent="1" vertex="1">
          <mxGeometry x="923" y="400" width="130" height="30" as="geometry" />
        </mxCell>
        <mxCell id="88Ob4_kD5uC0H-VeBAwT-48" value="UUID 등록 완료 알림" style="html=1;verticalAlign=bottom;endArrow=open;dashed=1;endSize=8;curved=0;rounded=0;" parent="1" edge="1">
          <mxGeometry relative="1" as="geometry">
            <mxPoint x="1205" y="461" as="targetPoint" />
            <mxPoint x="1475" y="461" as="sourcePoint" />
          </mxGeometry>
        </mxCell>
      </root>
    </mxGraphModel>
  </diagram>
  <diagram id="nBCCRYvfiedPLsGbI0G_" name="sd 사용자 관리">
    <mxGraphModel dx="1097" dy="598" grid="1" gridSize="10" guides="1" tooltips="1" connect="1" arrows="1" fold="1" page="1" pageScale="1" pageWidth="1654" pageHeight="1169" math="0" shadow="0">
      <root>
        <mxCell id="0" />
        <mxCell id="1" parent="0" />
        <mxCell id="R4DR_G9GQ5IVlfOTWtKF-1" value="" style="shape=umlLifeline;perimeter=lifelinePerimeter;whiteSpace=wrap;html=1;container=1;dropTarget=0;collapsible=0;recursiveResize=0;outlineConnect=0;portConstraint=eastwest;newEdgeStyle={&quot;curved&quot;:0,&quot;rounded&quot;:0};participant=umlActor;size=40;" vertex="1" parent="1">
          <mxGeometry x="279" y="110" width="20" height="410" as="geometry" />
        </mxCell>
        <mxCell id="JUTWupZfJx8gIUY6-H3r-1" value="" style="html=1;points=[[0,0,0,0,5],[0,1,0,0,-5],[1,0,0,0,5],[1,1,0,0,-5]];perimeter=orthogonalPerimeter;outlineConnect=0;targetShapes=umlLifeline;portConstraint=eastwest;newEdgeStyle={&quot;curved&quot;:0,&quot;rounded&quot;:0};" vertex="1" parent="R4DR_G9GQ5IVlfOTWtKF-1">
          <mxGeometry x="5" y="90" width="10" height="270" as="geometry" />
        </mxCell>
        <mxCell id="R4DR_G9GQ5IVlfOTWtKF-2" value="&lt;span style=&quot;font-weight: 400;&quot;&gt;관리자&lt;/span&gt;" style="text;align=center;fontStyle=1;verticalAlign=middle;spacingLeft=3;spacingRight=3;strokeColor=none;rotatable=0;points=[[0,0.5],[1,0.5]];portConstraint=eastwest;html=1;fontSize=12;" vertex="1" parent="1">
          <mxGeometry x="279" y="150" width="70" height="30" as="geometry" />
        </mxCell>
        <mxCell id="R4DR_G9GQ5IVlfOTWtKF-3" value="sd 사용자 관리" style="shape=umlFrame;whiteSpace=wrap;html=1;pointerEvents=0;width=80;height=40;" vertex="1" parent="1">
          <mxGeometry x="180" y="80" width="560" height="455" as="geometry" />
        </mxCell>
        <mxCell id="R4DR_G9GQ5IVlfOTWtKF-4" value=":앱" style="shape=umlLifeline;perimeter=lifelinePerimeter;whiteSpace=wrap;html=1;container=1;dropTarget=0;collapsible=0;recursiveResize=0;outlineConnect=0;portConstraint=eastwest;newEdgeStyle={&quot;curved&quot;:0,&quot;rounded&quot;:0};" vertex="1" parent="1">
          <mxGeometry x="390" y="110" width="100" height="410" as="geometry" />
        </mxCell>
        <mxCell id="R4DR_G9GQ5IVlfOTWtKF-5" value="" style="html=1;points=[[0,0,0,0,5],[0,1,0,0,-5],[1,0,0,0,5],[1,1,0,0,-5]];perimeter=orthogonalPerimeter;outlineConnect=0;targetShapes=umlLifeline;portConstraint=eastwest;newEdgeStyle={&quot;curved&quot;:0,&quot;rounded&quot;:0};" vertex="1" parent="R4DR_G9GQ5IVlfOTWtKF-4">
          <mxGeometry x="45" y="90" width="10" height="270" as="geometry" />
        </mxCell>
        <mxCell id="R4DR_G9GQ5IVlfOTWtKF-6" value="사용자 관리 버튼 클릭()" style="html=1;verticalAlign=bottom;endArrow=block;curved=0;rounded=0;entryX=0;entryY=0;entryDx=0;entryDy=5;" edge="1" parent="1" source="JUTWupZfJx8gIUY6-H3r-1">
          <mxGeometry x="-0.0054" relative="1" as="geometry">
            <mxPoint x="249.5" y="219.66000000000003" as="sourcePoint" />
            <mxPoint x="435" y="219.66000000000003" as="targetPoint" />
            <mxPoint as="offset" />
          </mxGeometry>
        </mxCell>
        <mxCell id="R4DR_G9GQ5IVlfOTWtKF-13" value="사용자 UUID 목록 요청()" style="html=1;verticalAlign=bottom;endArrow=block;curved=0;rounded=0;align=center;" edge="1" parent="1" target="R4DR_G9GQ5IVlfOTWtKF-16">
          <mxGeometry relative="1" as="geometry">
            <mxPoint x="445" y="282" as="sourcePoint" />
            <mxPoint x="715.0000000000002" y="282.0000000000001" as="targetPoint" />
          </mxGeometry>
        </mxCell>
        <mxCell id="R4DR_G9GQ5IVlfOTWtKF-14" value="UUID 목록 반환" style="html=1;verticalAlign=bottom;endArrow=open;dashed=1;endSize=8;curved=0;rounded=0;align=center;" edge="1" parent="1" source="R4DR_G9GQ5IVlfOTWtKF-16">
          <mxGeometry relative="1" as="geometry">
            <mxPoint x="445" y="319.9999999999998" as="targetPoint" />
            <mxPoint x="715.0000000000002" y="319.9999999999998" as="sourcePoint" />
          </mxGeometry>
        </mxCell>
        <mxCell id="R4DR_G9GQ5IVlfOTWtKF-15" value=":내부 DB" style="shape=umlLifeline;perimeter=lifelinePerimeter;whiteSpace=wrap;html=1;container=1;dropTarget=0;collapsible=0;recursiveResize=0;outlineConnect=0;portConstraint=eastwest;newEdgeStyle={&quot;curved&quot;:0,&quot;rounded&quot;:0};" vertex="1" parent="1">
          <mxGeometry x="540" y="110" width="100" height="410" as="geometry" />
        </mxCell>
        <mxCell id="R4DR_G9GQ5IVlfOTWtKF-16" value="" style="html=1;points=[[0,0,0,0,5],[0,1,0,0,-5],[1,0,0,0,5],[1,1,0,0,-5]];perimeter=orthogonalPerimeter;outlineConnect=0;targetShapes=umlLifeline;portConstraint=eastwest;newEdgeStyle={&quot;curved&quot;:0,&quot;rounded&quot;:0};" vertex="1" parent="R4DR_G9GQ5IVlfOTWtKF-15">
          <mxGeometry x="45" y="90" width="10" height="270" as="geometry" />
        </mxCell>
        <mxCell id="R4DR_G9GQ5IVlfOTWtKF-17" value="UUID 삭제 완료" style="html=1;verticalAlign=bottom;endArrow=open;dashed=1;endSize=8;curved=0;rounded=0;align=center;" edge="1" parent="1" source="R4DR_G9GQ5IVlfOTWtKF-16">
          <mxGeometry relative="1" as="geometry">
            <mxPoint x="445" y="419.9999999999998" as="targetPoint" />
            <mxPoint x="715.0000000000002" y="419.9999999999998" as="sourcePoint" />
          </mxGeometry>
        </mxCell>
        <mxCell id="R4DR_G9GQ5IVlfOTWtKF-23" value="UUID 목록 조회 버튼 클릭()" style="html=1;verticalAlign=bottom;endArrow=block;curved=0;rounded=0;entryX=0;entryY=0;entryDx=0;entryDy=5;" edge="1" parent="1" source="JUTWupZfJx8gIUY6-H3r-1">
          <mxGeometry x="-0.0054" relative="1" as="geometry">
            <mxPoint x="288" y="260.34000000000003" as="sourcePoint" />
            <mxPoint x="435" y="260" as="targetPoint" />
            <mxPoint as="offset" />
          </mxGeometry>
        </mxCell>
        <mxCell id="R4DR_G9GQ5IVlfOTWtKF-24" value="UUID 목록 표시" style="html=1;verticalAlign=bottom;endArrow=open;dashed=1;endSize=8;curved=0;rounded=0;align=center;" edge="1" parent="1" source="R4DR_G9GQ5IVlfOTWtKF-5" target="JUTWupZfJx8gIUY6-H3r-1">
          <mxGeometry relative="1" as="geometry">
            <mxPoint x="200" y="379.9999999999998" as="targetPoint" />
            <mxPoint x="450" y="380" as="sourcePoint" />
          </mxGeometry>
        </mxCell>
        <mxCell id="R4DR_G9GQ5IVlfOTWtKF-26" value="&lt;font style=&quot;font-size: 10px;&quot;&gt;특정 UUID 선택 후 삭제 요청()&lt;/font&gt;" style="html=1;verticalAlign=bottom;endArrow=block;curved=0;rounded=0;entryX=0;entryY=0;entryDx=0;entryDy=5;" edge="1" parent="1" source="JUTWupZfJx8gIUY6-H3r-1">
          <mxGeometry x="-0.0054" relative="1" as="geometry">
            <mxPoint x="288" y="380.34000000000003" as="sourcePoint" />
            <mxPoint x="435" y="380" as="targetPoint" />
            <mxPoint as="offset" />
          </mxGeometry>
        </mxCell>
        <mxCell id="R4DR_G9GQ5IVlfOTWtKF-28" value="UUID 삭제 요청()" style="html=1;verticalAlign=bottom;endArrow=block;curved=0;rounded=0;align=center;" edge="1" parent="1" target="R4DR_G9GQ5IVlfOTWtKF-16">
          <mxGeometry relative="1" as="geometry">
            <mxPoint x="445" y="390" as="sourcePoint" />
            <mxPoint x="715.0000000000002" y="390.0000000000001" as="targetPoint" />
          </mxGeometry>
        </mxCell>
        <mxCell id="R4DR_G9GQ5IVlfOTWtKF-30" value="UUID 삭제 완료 알림" style="html=1;verticalAlign=bottom;endArrow=open;dashed=1;endSize=8;curved=0;rounded=0;align=center;" edge="1" parent="1" source="R4DR_G9GQ5IVlfOTWtKF-5" target="JUTWupZfJx8gIUY6-H3r-1">
          <mxGeometry relative="1" as="geometry">
            <mxPoint x="289" y="335" as="targetPoint" />
            <mxPoint x="435" y="335" as="sourcePoint" />
            <Array as="points">
              <mxPoint x="400" y="430" />
            </Array>
          </mxGeometry>
        </mxCell>
      </root>
    </mxGraphModel>
  </diagram>
  <diagram id="Ji0tWzAJYqBCujCCBq_v" name="페이지-4">
    <mxGraphModel dx="1261" dy="796" grid="1" gridSize="10" guides="1" tooltips="1" connect="1" arrows="1" fold="1" page="1" pageScale="1" pageWidth="1654" pageHeight="1169" math="0" shadow="0">
      <root>
        <mxCell id="0" />
        <mxCell id="1" parent="0" />
        <mxCell id="KqGOY5UHgoSyNzjWeSAW-2" value="&lt;span style=&quot;font-weight: normal;&quot;&gt;사용자&lt;/span&gt;" style="text;align=center;fontStyle=1;verticalAlign=middle;spacingLeft=3;spacingRight=3;strokeColor=none;rotatable=0;points=[[0,0.5],[1,0.5]];portConstraint=eastwest;html=1;fontSize=12;" vertex="1" parent="1">
          <mxGeometry x="279" y="110" width="70" height="30" as="geometry" />
        </mxCell>
        <mxCell id="KqGOY5UHgoSyNzjWeSAW-3" value="sd 앱 실행" style="shape=umlFrame;whiteSpace=wrap;html=1;pointerEvents=0;width=80;height=40;" vertex="1" parent="1">
          <mxGeometry x="120" y="50" width="920" height="700" as="geometry" />
        </mxCell>
        <mxCell id="KqGOY5UHgoSyNzjWeSAW-6" value="병원 정보 화면 클릭()" style="html=1;verticalAlign=bottom;endArrow=block;curved=0;rounded=0;entryX=0.5;entryY=0.171;entryDx=0;entryDy=0;entryPerimeter=0;" edge="1" parent="1" source="eyNOPj4W5LRzNS8-DWyf-1">
          <mxGeometry relative="1" as="geometry">
            <mxPoint x="288.6666666666665" y="158.00000000000009" as="sourcePoint" />
            <mxPoint x="440" y="158.11" as="targetPoint" />
          </mxGeometry>
        </mxCell>
        <mxCell id="KqGOY5UHgoSyNzjWeSAW-8" value="alt" style="shape=umlFrame;whiteSpace=wrap;html=1;pointerEvents=0;" vertex="1" parent="1">
          <mxGeometry x="180" y="170" width="440" height="130" as="geometry" />
        </mxCell>
        <mxCell id="KqGOY5UHgoSyNzjWeSAW-11" value="위치 정보 전달" style="html=1;verticalAlign=bottom;endArrow=open;dashed=1;endSize=8;curved=0;rounded=0;exitX=0;exitY=1;exitDx=0;exitDy=-5;" edge="1" parent="1">
          <mxGeometry relative="1" as="geometry">
            <mxPoint x="445" y="224" as="targetPoint" />
            <mxPoint x="595" y="224" as="sourcePoint" />
          </mxGeometry>
        </mxCell>
        <mxCell id="KqGOY5UHgoSyNzjWeSAW-13" value="위치 수동 입력 요청()" style="html=1;verticalAlign=bottom;endArrow=block;curved=0;rounded=0;align=center;" edge="1" parent="1" target="eyNOPj4W5LRzNS8-DWyf-1">
          <mxGeometry relative="1" as="geometry">
            <mxPoint x="435" y="267" as="sourcePoint" />
            <mxPoint x="289.16666666666663" y="267" as="targetPoint" />
          </mxGeometry>
        </mxCell>
        <mxCell id="KqGOY5UHgoSyNzjWeSAW-19" value="" style="endArrow=none;dashed=1;html=1;rounded=0;exitX=0.001;exitY=0.5;exitDx=0;exitDy=0;exitPerimeter=0;entryX=1;entryY=0.507;entryDx=0;entryDy=0;entryPerimeter=0;" edge="1" parent="1" source="KqGOY5UHgoSyNzjWeSAW-8" target="KqGOY5UHgoSyNzjWeSAW-8">
          <mxGeometry width="50" height="50" relative="1" as="geometry">
            <mxPoint x="510" y="390" as="sourcePoint" />
            <mxPoint x="560" y="340" as="targetPoint" />
          </mxGeometry>
        </mxCell>
        <mxCell id="KqGOY5UHgoSyNzjWeSAW-20" value="&lt;font&gt;[GPS 권한이&amp;nbsp;&lt;/font&gt;&lt;div&gt;&lt;font&gt;허용된 경우]&lt;/font&gt;&lt;/div&gt;" style="text;html=1;align=center;verticalAlign=middle;whiteSpace=wrap;rounded=0;fontSize=9;" vertex="1" parent="1">
          <mxGeometry x="175" y="200" width="120" height="30" as="geometry" />
        </mxCell>
        <mxCell id="KqGOY5UHgoSyNzjWeSAW-21" value="&lt;font&gt;[GPS 권한이&lt;/font&gt;&lt;div&gt;&lt;font&gt;허용되지 않은 경우]&lt;/font&gt;&lt;/div&gt;" style="text;html=1;align=center;verticalAlign=middle;whiteSpace=wrap;rounded=0;fontSize=9;" vertex="1" parent="1">
          <mxGeometry x="169" y="250" width="130" height="30" as="geometry" />
        </mxCell>
        <mxCell id="KqGOY5UHgoSyNzjWeSAW-28" value="alt" style="shape=umlFrame;whiteSpace=wrap;html=1;pointerEvents=0;" vertex="1" parent="1">
          <mxGeometry x="180" y="320" width="780" height="350" as="geometry" />
        </mxCell>
        <mxCell id="KqGOY5UHgoSyNzjWeSAW-30" value="[네트워크에&amp;nbsp;&lt;div&gt;연결된 경우]&lt;/div&gt;" style="text;html=1;align=center;verticalAlign=middle;whiteSpace=wrap;rounded=0;fontSize=9;" vertex="1" parent="1">
          <mxGeometry x="171" y="352" width="120" height="30" as="geometry" />
        </mxCell>
        <mxCell id="KqGOY5UHgoSyNzjWeSAW-31" value="[네트워크에&amp;nbsp;&lt;div&gt;연결되지 않은 경우]&lt;/div&gt;" style="text;html=1;align=center;verticalAlign=middle;whiteSpace=wrap;rounded=0;fontSize=9;" vertex="1" parent="1">
          <mxGeometry x="170" y="466" width="130" height="30" as="geometry" />
        </mxCell>
        <mxCell id="KqGOY5UHgoSyNzjWeSAW-26" value=":로컬 저장소" style="shape=umlLifeline;perimeter=lifelinePerimeter;whiteSpace=wrap;html=1;container=1;dropTarget=0;collapsible=0;recursiveResize=0;outlineConnect=0;portConstraint=eastwest;newEdgeStyle={&quot;curved&quot;:0,&quot;rounded&quot;:0};" vertex="1" parent="1">
          <mxGeometry x="880" y="80" width="100" height="640" as="geometry" />
        </mxCell>
        <mxCell id="KqGOY5UHgoSyNzjWeSAW-27" value="" style="html=1;points=[[0,0,0,0,5],[0,1,0,0,-5],[1,0,0,0,5],[1,1,0,0,-5]];perimeter=orthogonalPerimeter;outlineConnect=0;targetShapes=umlLifeline;portConstraint=eastwest;newEdgeStyle={&quot;curved&quot;:0,&quot;rounded&quot;:0};" vertex="1" parent="KqGOY5UHgoSyNzjWeSAW-26">
          <mxGeometry x="45" y="140.49" width="10" height="419.51" as="geometry" />
        </mxCell>
        <mxCell id="KqGOY5UHgoSyNzjWeSAW-1" value="" style="shape=umlLifeline;perimeter=lifelinePerimeter;whiteSpace=wrap;html=1;container=1;dropTarget=0;collapsible=0;recursiveResize=0;outlineConnect=0;portConstraint=eastwest;newEdgeStyle={&quot;curved&quot;:0,&quot;rounded&quot;:0};participant=umlActor;size=40;" vertex="1" parent="1">
          <mxGeometry x="279" y="80" width="20" height="640" as="geometry" />
        </mxCell>
        <mxCell id="eyNOPj4W5LRzNS8-DWyf-1" value="" style="html=1;points=[[0,0,0,0,5],[0,1,0,0,-5],[1,0,0,0,5],[1,1,0,0,-5]];perimeter=orthogonalPerimeter;outlineConnect=0;targetShapes=umlLifeline;portConstraint=eastwest;newEdgeStyle={&quot;curved&quot;:0,&quot;rounded&quot;:0};" vertex="1" parent="KqGOY5UHgoSyNzjWeSAW-1">
          <mxGeometry x="5" y="60" width="10" height="500" as="geometry" />
        </mxCell>
        <mxCell id="KqGOY5UHgoSyNzjWeSAW-4" value=":앱" style="shape=umlLifeline;perimeter=lifelinePerimeter;whiteSpace=wrap;html=1;container=1;dropTarget=0;collapsible=0;recursiveResize=0;outlineConnect=0;portConstraint=eastwest;newEdgeStyle={&quot;curved&quot;:0,&quot;rounded&quot;:0};" vertex="1" parent="1">
          <mxGeometry x="390" y="80" width="100" height="640" as="geometry" />
        </mxCell>
        <mxCell id="KqGOY5UHgoSyNzjWeSAW-5" value="" style="html=1;points=[[0,0,0,0,5],[0,1,0,0,-5],[1,0,0,0,5],[1,1,0,0,-5]];perimeter=orthogonalPerimeter;outlineConnect=0;targetShapes=umlLifeline;portConstraint=eastwest;newEdgeStyle={&quot;curved&quot;:0,&quot;rounded&quot;:0};" vertex="1" parent="KqGOY5UHgoSyNzjWeSAW-4">
          <mxGeometry x="45" y="140.49" width="10" height="419.51" as="geometry" />
        </mxCell>
        <mxCell id="KqGOY5UHgoSyNzjWeSAW-9" value="&amp;lt;&amp;lt;actor&amp;gt;&amp;gt;&lt;div&gt;GPS 시스템&lt;/div&gt;" style="shape=umlLifeline;perimeter=lifelinePerimeter;whiteSpace=wrap;html=1;container=1;dropTarget=0;collapsible=0;recursiveResize=0;outlineConnect=0;portConstraint=eastwest;newEdgeStyle={&quot;curved&quot;:0,&quot;rounded&quot;:0};" vertex="1" parent="1">
          <mxGeometry x="550" y="80" width="100" height="640" as="geometry" />
        </mxCell>
        <mxCell id="KqGOY5UHgoSyNzjWeSAW-10" value="" style="html=1;points=[[0,0,0,0,5],[0,1,0,0,-5],[1,0,0,0,5],[1,1,0,0,-5]];perimeter=orthogonalPerimeter;outlineConnect=0;targetShapes=umlLifeline;portConstraint=eastwest;newEdgeStyle={&quot;curved&quot;:0,&quot;rounded&quot;:0};" vertex="1" parent="KqGOY5UHgoSyNzjWeSAW-9">
          <mxGeometry x="45" y="140.49" width="10" height="419.51" as="geometry" />
        </mxCell>
        <mxCell id="KqGOY5UHgoSyNzjWeSAW-15" value=":병원 API" style="shape=umlLifeline;perimeter=lifelinePerimeter;whiteSpace=wrap;html=1;container=1;dropTarget=0;collapsible=0;recursiveResize=0;outlineConnect=0;portConstraint=eastwest;newEdgeStyle={&quot;curved&quot;:0,&quot;rounded&quot;:0};" vertex="1" parent="1">
          <mxGeometry x="670" y="80" width="100" height="640" as="geometry" />
        </mxCell>
        <mxCell id="KqGOY5UHgoSyNzjWeSAW-16" value="" style="html=1;points=[[0,0,0,0,5],[0,1,0,0,-5],[1,0,0,0,5],[1,1,0,0,-5]];perimeter=orthogonalPerimeter;outlineConnect=0;targetShapes=umlLifeline;portConstraint=eastwest;newEdgeStyle={&quot;curved&quot;:0,&quot;rounded&quot;:0};" vertex="1" parent="KqGOY5UHgoSyNzjWeSAW-15">
          <mxGeometry x="45" y="140.49" width="10" height="419.51" as="geometry" />
        </mxCell>
        <mxCell id="KqGOY5UHgoSyNzjWeSAW-22" value="병원 정보 반환" style="html=1;verticalAlign=bottom;endArrow=open;dashed=1;endSize=8;curved=0;rounded=0;" edge="1" parent="1" target="KqGOY5UHgoSyNzjWeSAW-5">
          <mxGeometry relative="1" as="geometry">
            <mxPoint x="780" y="530" as="targetPoint" />
            <mxPoint x="924.81" y="530" as="sourcePoint" />
          </mxGeometry>
        </mxCell>
        <mxCell id="KqGOY5UHgoSyNzjWeSAW-29" value="" style="endArrow=none;dashed=1;html=1;rounded=0;exitX=0.001;exitY=0.5;exitDx=0;exitDy=0;exitPerimeter=0;entryX=1;entryY=0.4;entryDx=0;entryDy=0;entryPerimeter=0;" edge="1" parent="1" target="KqGOY5UHgoSyNzjWeSAW-28">
          <mxGeometry width="50" height="50" relative="1" as="geometry">
            <mxPoint x="180.6199999999999" y="460" as="sourcePoint" />
            <mxPoint x="796.9000000000001" y="461.4000000000001" as="targetPoint" />
          </mxGeometry>
        </mxCell>
        <mxCell id="KqGOY5UHgoSyNzjWeSAW-14" value="병원 정보 반환" style="html=1;verticalAlign=bottom;endArrow=open;dashed=1;endSize=8;curved=0;rounded=0;exitX=0;exitY=1;exitDx=0;exitDy=-5;align=center;" edge="1" parent="1">
          <mxGeometry relative="1" as="geometry">
            <mxPoint x="445" y="369.9999999999998" as="targetPoint" />
            <mxPoint x="715.0000000000002" y="369.9999999999998" as="sourcePoint" />
          </mxGeometry>
        </mxCell>
        <mxCell id="KqGOY5UHgoSyNzjWeSAW-12" value="위치 정보 요청()" style="html=1;verticalAlign=bottom;endArrow=block;curved=0;rounded=0;" edge="1" parent="1">
          <mxGeometry relative="1" as="geometry">
            <mxPoint x="440.16666666666663" y="200" as="sourcePoint" />
            <mxPoint x="599.5" y="200" as="targetPoint" />
          </mxGeometry>
        </mxCell>
        <mxCell id="KqGOY5UHgoSyNzjWeSAW-34" value="GPS 기반 병원 정보 탐색()" style="html=1;verticalAlign=bottom;endArrow=block;curved=0;rounded=0;align=center;" edge="1" parent="1">
          <mxGeometry relative="1" as="geometry">
            <mxPoint x="445" y="342.99951219512184" as="sourcePoint" />
            <mxPoint x="715" y="342.99951219512184" as="targetPoint" />
          </mxGeometry>
        </mxCell>
        <mxCell id="KqGOY5UHgoSyNzjWeSAW-7" value="거리 순 병원 정보 표시" style="html=1;verticalAlign=bottom;endArrow=open;dashed=1;endSize=8;curved=0;rounded=0;" edge="1" parent="1" target="eyNOPj4W5LRzNS8-DWyf-1">
          <mxGeometry relative="1" as="geometry">
            <mxPoint x="289.16666666666663" y="440" as="targetPoint" />
            <mxPoint x="435" y="440" as="sourcePoint" />
          </mxGeometry>
        </mxCell>
        <mxCell id="KqGOY5UHgoSyNzjWeSAW-35" value="병원 정보 백업 ()&amp;nbsp;&amp;nbsp;" style="html=1;verticalAlign=bottom;endArrow=block;curved=0;rounded=0;align=right;" edge="1" parent="1" target="KqGOY5UHgoSyNzjWeSAW-27">
          <mxGeometry relative="1" as="geometry">
            <mxPoint x="445" y="399.7095121951218" as="sourcePoint" />
            <mxPoint x="715" y="399.7095121951218" as="targetPoint" />
          </mxGeometry>
        </mxCell>
        <mxCell id="KqGOY5UHgoSyNzjWeSAW-36" value="로컬 병원 정보 요청" style="html=1;verticalAlign=bottom;endArrow=block;curved=0;rounded=0;align=center;" edge="1" parent="1">
          <mxGeometry relative="1" as="geometry">
            <mxPoint x="450" y="487.6595121951218" as="sourcePoint" />
            <mxPoint x="925" y="487.6595121951218" as="targetPoint" />
          </mxGeometry>
        </mxCell>
        <mxCell id="KqGOY5UHgoSyNzjWeSAW-38" value="alt" style="shape=umlFrame;whiteSpace=wrap;html=1;pointerEvents=0;" vertex="1" parent="1">
          <mxGeometry x="190" y="500" width="760" height="160" as="geometry" />
        </mxCell>
        <mxCell id="KqGOY5UHgoSyNzjWeSAW-39" value="" style="endArrow=none;dashed=1;html=1;rounded=0;exitX=0.001;exitY=0.5;exitDx=0;exitDy=0;exitPerimeter=0;entryX=1.001;entryY=0.534;entryDx=0;entryDy=0;entryPerimeter=0;" edge="1" parent="1" target="KqGOY5UHgoSyNzjWeSAW-38">
          <mxGeometry width="50" height="50" relative="1" as="geometry">
            <mxPoint x="189.9999999999999" y="585" as="sourcePoint" />
            <mxPoint x="969.38" y="585" as="targetPoint" />
          </mxGeometry>
        </mxCell>
        <mxCell id="eyNOPj4W5LRzNS8-DWyf-2" value="거리 순 병원 정보 표시" style="html=1;verticalAlign=bottom;endArrow=open;dashed=1;endSize=8;curved=0;rounded=0;" edge="1" parent="1" target="eyNOPj4W5LRzNS8-DWyf-1">
          <mxGeometry relative="1" as="geometry">
            <mxPoint x="291" y="540" as="targetPoint" />
            <mxPoint x="432" y="540" as="sourcePoint" />
          </mxGeometry>
        </mxCell>
        <mxCell id="eyNOPj4W5LRzNS8-DWyf-3" value="[오프라인 정보가&amp;nbsp;&lt;div&gt;저장되어 있는 경우]&lt;/div&gt;" style="text;html=1;align=center;verticalAlign=middle;whiteSpace=wrap;rounded=0;fontSize=8;" vertex="1" parent="1">
          <mxGeometry x="175" y="540" width="120" height="30" as="geometry" />
        </mxCell>
        <mxCell id="eyNOPj4W5LRzNS8-DWyf-4" value="&lt;font style=&quot;font-size: 8px;&quot;&gt;[오프라인 정보가&amp;nbsp;&lt;/font&gt;&lt;div&gt;&lt;font style=&quot;font-size: 8px;&quot;&gt;저장되어 있지 않은 경우]&lt;/font&gt;&lt;/div&gt;" style="text;html=1;align=center;verticalAlign=middle;whiteSpace=wrap;rounded=0;fontSize=9;" vertex="1" parent="1">
          <mxGeometry x="176" y="600" width="120" height="30" as="geometry" />
        </mxCell>
        <mxCell id="eyNOPj4W5LRzNS8-DWyf-5" value="병원 정보 없음 안내" style="html=1;verticalAlign=bottom;endArrow=open;dashed=1;endSize=8;curved=0;rounded=0;" edge="1" parent="1">
          <mxGeometry relative="1" as="geometry">
            <mxPoint x="296" y="614.67" as="targetPoint" />
            <mxPoint x="434" y="614.67" as="sourcePoint" />
          </mxGeometry>
        </mxCell>
      </root>
    </mxGraphModel>
  </diagram>
  <diagram id="cJlk7Xgu9MKBFOZEma7S" name="병원 정보 관리">
    <mxGraphModel dx="703" dy="794" grid="0" gridSize="10" guides="1" tooltips="1" connect="1" arrows="1" fold="1" page="0" pageScale="1" pageWidth="850" pageHeight="1100" math="0" shadow="0">
      <root>
        <mxCell id="0" />
        <mxCell id="1" parent="0" />
      </root>
    </mxGraphModel>
  </diagram>
</mxfile>
